<svg width="24" height="24" viewBox="0 0 24 24" fill="none" xmlns="http://www.w3.org/2000/svg">
    <g id="Iconly/Curved/Light/Volume Up">
    <g id="Volume Up">
    <path id="Stroke 1" d="M19.4356 5.7746C21.9292 9.4946 21.9365 14.4037 19.4356 18.1319" stroke="black" stroke-width="1.5" stroke-linecap="round" stroke-linejoin="round"/>
    <path id="Stroke 3" d="M16.9889 8.21732C18.2707 10.54 18.2707 13.3746 16.9889 15.6891" stroke="black" stroke-width="1.5" stroke-linecap="round" stroke-linejoin="round"/>
    <path id="Stroke 5" fill-rule="evenodd" clip-rule="evenodd" d="M2.68225 11.953C2.67952 13.1994 2.68225 14.6612 3.71134 15.5349C4.74134 16.4094 5.5577 16.0485 6.88952 16.4867C8.22225 16.9258 10.0886 19.633 12.1504 18.4103C13.265 17.6185 13.7904 16.124 13.7904 11.953C13.7904 7.78214 13.2886 6.30395 12.1504 5.49577C10.0886 4.27395 8.22225 6.98123 6.88952 7.41941C5.5577 7.8585 4.74134 7.49759 3.71134 8.37123C2.68225 9.24486 2.67952 10.7067 2.68225 11.953Z" stroke="black" stroke-width="1.5" stroke-linecap="round" stroke-linejoin="round"/>
    </g>
    </g>
</svg>
